<?xml version="1.0" encoding="UTF-8" standalone="no"?>
<svg
   xmlns:dc="http://purl.org/dc/elements/1.1/"
   xmlns:cc="http://creativecommons.org/ns#"
   xmlns:rdf="http://www.w3.org/1999/02/22-rdf-syntax-ns#"
   xmlns:svg="http://www.w3.org/2000/svg"
   xmlns="http://www.w3.org/2000/svg"
   xmlns:sodipodi="http://sodipodi.sourceforge.net/DTD/sodipodi-0.dtd"
   xmlns:inkscape="http://www.inkscape.org/namespaces/inkscape"
   class="icon"
   x="0px"
   y="0px"
   viewBox="0 0 28 28"
   enable-background="new 0 0 28 28"
   xml:space="preserve"
   id="svg2"
   version="1.1"
   inkscape:version="0.91 r13725"
   sodipodi:docname="icon-facebook2.svg"><metadata
     id="metadata9"><rdf:RDF><cc:Work
         rdf:about=""><dc:format>image/svg+xml</dc:format><dc:type
           rdf:resource="http://purl.org/dc/dcmitype/StillImage" /><dc:title></dc:title></cc:Work></rdf:RDF></metadata><defs
     id="defs7" /><sodipodi:namedview
     pagecolor="#ffffff"
     bordercolor="#666666"
     borderopacity="1"
     objecttolerance="10"
     gridtolerance="10"
     guidetolerance="10"
     inkscape:pageopacity="0"
     inkscape:pageshadow="2"
     inkscape:window-width="676"
     inkscape:window-height="480"
     id="namedview5"
     showgrid="false"
     inkscape:zoom="8.4285714"
     inkscape:cx="30.432203"
     inkscape:cy="10.025424"
     inkscape:window-x="57"
     inkscape:window-y="26"
     inkscape:window-maximized="0"
     inkscape:current-layer="svg2" /><path
     id="Facebook"
     d="M14,0C6.27,0,0,6.27,0,14s6.27,14,14,14s14-6.27,14-14S21.73,0,14,0z M20.99,20.22  c0,0.43-0.35,0.77-0.77,0.77h-3.56v-5.42h1.82l0.27-2.11h-2.09v-1.35c0-0.61,0.17-1.03,1.05-1.03l1.12,0V9.2  c-0.19-0.03-0.86-0.08-1.63-0.08c-1.61,0-2.71,0.98-2.71,2.79v1.56h-1.82v2.11h1.82v5.42h-6.7c-0.43,0-0.77-0.35-0.77-0.77V7.78  c0-0.43,0.35-0.77,0.77-0.77h12.44c0.43,0,0.77,0.35,0.77,0.77V20.22z"
     fill="#D1CECC"
     style="fill:#5168cc;fill-opacity:1" /></svg>